<?xml version="1.0" standalone="no"?>
<!DOCTYPE svg PUBLIC "-//W3C//DTD SVG 20010904//EN"
 "http://www.w3.org/TR/2001/REC-SVG-20010904/DTD/svg10.dtd">
<svg version="1.0" xmlns="http://www.w3.org/2000/svg"
 width="1434.000000pt" height="1434.000000pt" viewBox="0 0 1434.000000 1434.000000"
 preserveAspectRatio="xMidYMid meet">
<metadata>
Created by potrace 1.11, written by Peter Selinger 2001-2013
</metadata>
<g transform="translate(0.000000,1434.000000) scale(0.100000,-0.100000)"
fill="#000000" stroke="none">
<path d="M2108 12236 l-2098 -2103 0 -2964 0 -2964 2103 -2103 2102 -2102
2965 0 2965 0 2098 2098 2097 2097 0 2975 0 2975 -2097 2098 -2097 2097 -2970
-1 -2971 -1 -2097 -2102z m9335 -804 l1767 -1767 0 -2495 0 -2495 -1767 -1767
-1768 -1768 -2495 0 -2495 0 -1768 1768 -1767 1767 0 2495 0 2495 1767 1767
1768 1768 2495 0 2495 0 1768 -1768z"/>
<path d="M6211 12649 c-57 -10 -109 -20 -116 -23 -8 -3 92 -593 341 -2003 195
-1099 352 -2001 351 -2005 -1 -3 -333 903 -737 2014 -404 1111 -737 2021 -740
2022 -12 7 -230 -78 -230 -89 0 -6 328 -913 730 -2015 401 -1102 728 -2005
726 -2007 -2 -2 -471 807 -1042 1797 -571 990 -1042 1800 -1046 1800 -7 0
-218 -120 -218 -124 0 -3 991 -1719 2058 -3566 15 -25 20 -40 12 -33 -8 6
-586 693 -1285 1527 -698 833 -1274 1515 -1278 1515 -4 1 -50 -34 -102 -78
l-93 -78 1145 -1364 c630 -750 1212 -1444 1295 -1543 83 -98 145 -175 137
-171 -7 5 -699 584 -1537 1288 -838 703 -1529 1280 -1535 1282 -7 2 -48 -39
-91 -91 -67 -81 -77 -97 -65 -108 8 -8 687 -577 1509 -1266 822 -689 1504
-1262 1515 -1273 17 -17 13 -16 -25 5 -33 19 -3244 1871 -3526 2035 l-42 23
-61 -105 c-34 -58 -59 -110 -57 -114 3 -5 815 -476 1805 -1047 990 -571 1799
-1040 1797 -1041 -1 -1 -904 326 -2007 727 -1102 401 -2010 731 -2018 732 -15
3 -105 -222 -93 -233 4 -4 915 -337 2024 -740 1109 -403 2016 -735 2014 -737
-2 -1 -898 155 -1991 347 -1093 193 -1993 351 -1999 351 -8 0 -21 -45 -35
-121 -12 -67 -20 -123 -19 -124 2 -1 905 -161 2008 -355 1103 -194 2007 -354
2009 -356 2 -2 -903 -4 -2013 -4 l-2017 0 3 -127 3 -128 2010 1 c1106 0 1994
-3 1975 -7 -19 -4 -921 -163 -2005 -354 -1083 -191 -1972 -349 -1974 -351 -6
-5 31 -221 40 -236 6 -9 511 77 2000 340 1096 193 1994 350 1996 349 1 -2
-903 -333 -2010 -736 -1106 -402 -2015 -735 -2018 -739 -4 -4 13 -59 36 -122
31 -86 46 -114 58 -112 9 1 917 331 2019 732 1101 401 2003 728 2005 727 1 -2
-803 -468 -1787 -1036 -984 -568 -1791 -1035 -1793 -1038 -8 -7 113 -213 125
-213 7 0 3464 1991 3608 2078 22 14 23 14 10 0 -8 -8 -701 -590 -1540 -1293
-839 -703 -1530 -1283 -1537 -1289 -9 -8 7 -34 69 -109 l81 -97 51 43 c88 75
2918 2448 2976 2496 l55 46 -46 -55 c-59 -71 -2439 -2909 -2495 -2976 l-43
-50 76 -65 c42 -35 87 -72 99 -82 l22 -17 1272 1517 c700 835 1282 1527 1293
1538 19 20 19 20 4 -5 -63 -103 -2067 -3582 -2067 -3588 0 -4 48 -36 107 -70
89 -53 109 -61 118 -49 5 8 474 818 1040 1800 567 982 1031 1784 1032 1783 1
-1 -326 -904 -727 -2006 -402 -1103 -730 -2010 -730 -2015 0 -9 230 -100 235
-93 1 2 332 911 736 2020 403 1109 734 2016 736 2015 1 -2 -155 -894 -347
-1982 -192 -1089 -350 -1990 -350 -2001 0 -19 10 -23 93 -38 50 -9 105 -18
121 -19 l29 -2 351 1989 351 1990 5 -1995 5 -1994 128 -3 127 -3 1 2013 1
2013 354 -2004 c195 -1103 356 -2007 358 -2009 6 -5 224 31 238 39 9 6 -78
519 -340 2000 -193 1096 -350 1994 -348 1996 1 2 332 -902 735 -2009 403
-1107 735 -2016 739 -2019 11 -10 232 74 232 88 0 6 -331 920 -734 2030 -404
1110 -730 2011 -723 2002 7 -9 473 -816 1037 -1793 564 -977 1028 -1776 1032
-1776 14 0 218 122 214 128 -27 46 -2025 3509 -2043 3542 l-25 45 24 -25 c12
-14 592 -704 1287 -1533 696 -829 1268 -1507 1272 -1507 8 0 189 149 189 156
0 2 -575 690 -1277 1527 -703 838 -1285 1532 -1293 1542 -8 11 39 -26 105 -82
879 -740 2961 -2483 2966 -2483 4 0 43 42 88 94 l80 94 -1512 1269 c-1564
1312 -1559 1308 -1542 1300 6 -3 815 -469 1798 -1037 984 -567 1790 -1030
1791 -1028 11 13 127 220 124 222 -2 2 -805 466 -1785 1031 -981 566 -1781
1030 -1780 1031 2 2 905 -325 2007 -726 1103 -402 2007 -730 2010 -730 9 0 89
235 82 241 -4 4 -908 334 -2009 735 -1101 400 -2001 730 -1999 732 2 2 891
-153 1975 -344 1083 -192 1973 -346 1976 -342 8 8 50 237 44 242 -3 3 -906
164 -2007 358 l-2003 353 2011 3 2010 2 0 125 0 125 -1998 2 -1999 3 2000 352
c1100 194 2002 355 2004 357 2 2 -5 54 -17 116 -11 63 -20 117 -20 122 0 4 -8
8 -19 8 -10 0 -911 -157 -2002 -350 -1091 -192 -1984 -348 -1986 -347 -1 2
906 333 2015 737 1109 403 2019 735 2021 736 9 7 -83 245 -93 241 -6 -2 -902
-328 -1991 -725 -1089 -396 -1993 -726 -2010 -732 -16 -6 -25 -7 -20 -2 6 5
804 467 1775 1027 971 559 1777 1025 1792 1034 l27 16 -62 107 c-34 59 -65
108 -69 108 -3 0 -802 -459 -1775 -1021 -972 -561 -1784 -1030 -1803 -1041
l-35 -20 25 24 c14 12 704 592 1533 1287 829 696 1507 1268 1507 1272 0 10
-150 189 -158 189 -4 0 -673 -559 -1488 -1243 -814 -683 -1504 -1262 -1534
-1287 -41 -34 -5 14 150 199 113 135 692 826 1288 1535 595 710 1082 1293
1082 1297 0 9 -190 173 -194 168 -17 -23 -2563 -3058 -2574 -3069 -12 -13 -12
-12 1 10 8 14 477 826 1042 1805 565 979 1029 1783 1031 1787 4 6 -201 128
-214 128 -4 -1 -475 -813 -1047 -1805 -572 -992 -1041 -1802 -1042 -1801 -2 1
329 913 734 2026 637 1749 734 2024 721 2034 -21 15 -216 82 -221 76 -2 -3
-334 -913 -738 -2022 -403 -1109 -735 -2016 -737 -2014 -2 2 155 902 349 2000
193 1098 350 1999 347 2001 -5 6 -239 47 -243 43 -2 -2 -163 -907 -358 -2013
l-355 -2010 -1 2013 -1 2012 -130 0 -130 0 -1 -1997 -1 -1998 -349 1975 c-191
1086 -351 1985 -354 1998 -3 12 -9 22 -13 21 -4 -1 -54 -9 -111 -20z"/>
</g>
</svg>
